<mxfile host="Electron" agent="Mozilla/5.0 (Windows NT 10.0; Win64; x64) AppleWebKit/537.36 (KHTML, like Gecko) draw.io/26.0.4 Chrome/128.0.6613.186 Electron/32.2.5 Safari/537.36" version="26.0.4">
  <diagram name="Page-1" id="akw3GWgQ6-tsoBRa1ojP">
    <mxGraphModel dx="482" dy="282" grid="1" gridSize="1" guides="1" tooltips="1" connect="1" arrows="1" fold="1" page="1" pageScale="1" pageWidth="850" pageHeight="1100" math="0" shadow="0">
      <root>
        <mxCell id="0" />
        <mxCell id="1" parent="0" />
        <mxCell id="EwwuYfh2Tp_XF_4PR4OY-29" value="" style="verticalLabelPosition=bottom;verticalAlign=top;html=1;shape=mxgraph.infographic.shadedCube;isoAngle=15;fillColor=#10739E;strokeColor=none;" vertex="1" parent="1">
          <mxGeometry x="313" y="167" width="100" height="100" as="geometry" />
        </mxCell>
        <mxCell id="EwwuYfh2Tp_XF_4PR4OY-31" value="" style="endArrow=none;html=1;rounded=0;fillColor=#eeeeee;strokeColor=light-dark(#14E1D4,#14E1D4);entryX=0;entryY=0;entryDx=100;entryDy=24.0078759080116;exitX=0;exitY=0;exitDx=0;exitDy=75.9921240919884;strokeWidth=5;exitPerimeter=0;entryPerimeter=0;" edge="1" parent="1" source="EwwuYfh2Tp_XF_4PR4OY-29" target="EwwuYfh2Tp_XF_4PR4OY-29">
          <mxGeometry width="50" height="50" relative="1" as="geometry">
            <mxPoint x="315" y="242.00787590801156" as="sourcePoint" />
            <mxPoint x="389.5" y="187.25" as="targetPoint" />
            <Array as="points">
              <mxPoint x="363.25" y="266" />
              <mxPoint x="414" y="244" />
              <mxPoint x="313" y="191" />
              <mxPoint x="363" y="167" />
            </Array>
          </mxGeometry>
        </mxCell>
      </root>
    </mxGraphModel>
  </diagram>
</mxfile>
